<svg xmlns="http://www.w3.org/2000/svg" viewBox="0 0 200 200" width="200" height="200">

  <!-- Shield outer dark navy -->
  <path d="M100 12 L176 42 L176 110 C176 154 100 188 100 188 C100 188 24 154 24 110 L24 42 Z"
        fill="#1a2e4a"/>

  <!-- Shield white inner -->
  <path d="M100 28 L160 53 L160 109 C160 147 100 174 100 174 C100 174 40 147 40 109 L40 53 Z"
        fill="white"/>

  <!-- Blue speed dots -->
  <circle cx="60" cy="103" r="5" fill="#3b8dd4"/>
  <circle cx="72" cy="103" r="5" fill="#3b8dd4"/>
  <circle cx="84" cy="103" r="5" fill="#3b8dd4"/>

  <!-- Speed lines tapering right -->
  <rect x="88" y="97" width="34" height="7" rx="3.5" fill="#3b8dd4"/>
  <rect x="88" y="106" width="26" height="6" rx="3" fill="#5aa8e8"/>
  <rect x="88" y="114" width="18" height="5" rx="2.5" fill="#7dc0f0"/>

  <!-- Lock body -->
  <rect x="114" y="91" width="28" height="22" rx="4" fill="#1a2e4a"/>

  <!-- Lock shackle -->
  <path d="M120 91 L120 80 C120 70 136 70 136 80 L136 91"
        fill="none" stroke="#1a2e4a" stroke-width="7" stroke-linecap="round"/>

  <!-- Lock keyhole -->
  <circle cx="128" cy="100" r="4" fill="white"/>
  <rect x="125.5" y="100" width="5" height="7" rx="2.5" fill="white"/>

</svg>