<svg xmlns="http://www.w3.org/2000/svg" viewBox="0 0 200 200" width="200" height="200">
  <!-- Shield -->
  <path d="M100 15 L165 45 L165 105 C165 145 100 175 100 175 C100 175 35 145 35 105 L35 45 Z" fill="#1a2e4a" />
  <!-- Shield inner highlight -->
  <path d="M100 28 L152 52 L152 105 C152 137 100 162 100 162 C100 162 48 137 48 105 L48 52 Z" fill="white" opacity="0.97" />
  <!-- Speed lines (data flow) -->
  <circle cx="72" cy="100" r="4" fill="#3b8dd4" />
  <circle cx="79" cy="100" r="4" fill="#3b8dd4" />
  <circle cx="86" cy="100" r="4" fill="#3b8dd4" />
  <rect x="90" y="94" width="32" height="6" rx="3" fill="#3b8dd4" />
  <rect x="90" y="103" width="24" height="5" rx="2.5" fill="#5ba8e8" />
  <rect x="90" y="113" width="16" height="4" rx="2" fill="#7dc0f0" />
  <!-- Lock -->
  <rect x="118" y="88" width="28" height="22" rx="4" fill="#1a2e4a" />
  <path d="M124 88 L124 82 C124 75 136 75 136 82 L136 88" fill="none" stroke="#1a2e4a" stroke-width="5" stroke-linecap="round" />
  <circle cx="132" cy="98" r="3" fill="white" />
  <rect x="130.5" y="98" width="3" height="5" rx="1.5" fill="white" />
</svg>
